<?xml version="1.0" encoding="UTF-8" standalone="no"?>
<svg
   xmlns:dc="http://purl.org/dc/elements/1.1/"
   xmlns:cc="http://creativecommons.org/ns#"
   xmlns:rdf="http://www.w3.org/1999/02/22-rdf-syntax-ns#"
   xmlns:svg="http://www.w3.org/2000/svg"
   xmlns="http://www.w3.org/2000/svg"
   xmlns:sodipodi="http://sodipodi.sourceforge.net/DTD/sodipodi-0.dtd"
   xmlns:inkscape="http://www.inkscape.org/namespaces/inkscape"
   width="22371.268"
   height="1882.842"
   viewBox="0 0 22371.27 1882.8421"
   id="svg2"
   version="1.1"
   inkscape:version="0.91 r13725"
   sodipodi:docname="slimroms_limited_LETTERHEAD.svg">
  <sodipodi:namedview
     pagecolor="#ffffff"
     bordercolor="#666666"
     borderopacity="1"
     objecttolerance="10"
     gridtolerance="10"
     guidetolerance="10"
     inkscape:pageopacity="0"
     inkscape:pageshadow="2"
     inkscape:window-width="1206"
     inkscape:window-height="1002"
     id="namedview11"
     showgrid="false"
     fit-margin-top="0"
     fit-margin-left="0"
     fit-margin-right="0"
     fit-margin-bottom="0"
     inkscape:zoom="0.02"
     inkscape:cx="13226.462"
     inkscape:cy="-3566.3022"
     inkscape:window-x="66"
     inkscape:window-y="-8"
     inkscape:window-maximized="1"
     inkscape:current-layer="svg2"
     inkscape:document-units="px" />
  <defs
     id="defs4">
    <clipPath
       id="SVGID_10_">
      <path
         d="M 292.7,368 292.7,389 292.7,389 C 292.5,415.4 273.5,436.9 249.7,438 L 249.7,424 C 265.6,422.8 278.2,407.7 278.7,389 L 278.7,368 278.7,368 C 278.9,341.6 297.9,320.2 321.7,319.1 L 321.7,333.1 C 305.8,334.3 293.2,349.4 292.7,368 L 292.7,368 Z M 335.7,438 335.7,319 349.7,319 349.7,438 335.7,438 335.7,438 Z M 363.7,438 363.7,343 377.7,343 377.7,438 363.7,438 363.7,438 Z M 363.7,319 377.7,319 377.7,333 363.7,333 363.7,319 363.7,319 Z M 391.7,438 391.7,343 405.7,343 405.7,438 391.7,438 391.7,438 Z M 443.7,403 443.7,376 C 443.7,365.5 435.2,357 424.7,357 414.2,357 405.7,365.5 405.7,376 L 405.7,403 C 397.2,397 391.7,387.2 391.7,376 391.7,357.8 406.5,343 424.7,343 442.9,343 457.7,357.8 457.7,376 457.7,387.1 452.2,397 443.7,403 L 443.7,403 Z M 443.7,438 443.7,376 457.7,376 457.7,438 443.7,438 443.7,438 Z M 495.7,403 495.7,376 C 495.7,365.5 487.2,357 476.7,357 466.2,357 457.7,365.5 457.7,376 L 457.7,403 C 449.2,397 443.7,387.2 443.7,376 443.7,357.8 458.5,343 476.7,343 494.9,343 509.7,357.8 509.7,376 509.7,387.1 504.2,397 495.7,403 L 495.7,403 Z M 495.7,438 495.7,376 509.7,376 509.7,438 495.7,438 495.7,438 Z"
         id="use53"
         inkscape:connector-curvature="0" />
    </clipPath>
    <clipPath
       id="SVGID_12_">
      <path
         d="M 677.7,438 677.7,343 691.7,343 691.7,438 677.7,438 677.7,438 Z M 729.7,403 729.7,376 C 729.7,365.5 721.2,357 710.7,357 700.2,357 691.7,365.5 691.7,376 L 691.7,403 C 683.2,397 677.7,387.2 677.7,376 677.7,357.8 692.5,343 710.7,343 728.9,343 743.7,357.8 743.7,376 743.7,387.1 738.2,397 729.7,403 L 729.7,403 Z M 729.7,438 729.7,376 743.7,376 743.7,438 729.7,438 729.7,438 Z M 781.7,403 781.7,376 C 781.7,365.5 773.2,357 762.7,357 752.2,357 743.7,365.5 743.7,376 L 743.7,403 C 735.2,397 729.7,387.2 729.7,376 729.7,357.8 744.5,343 762.7,343 780.9,343 795.7,357.8 795.7,376 795.7,387.1 790.2,397 781.7,403 L 781.7,403 Z M 781.7,438 781.7,376 795.7,376 795.7,438 781.7,438 781.7,438 Z M 523.7,438 523.7,343 537.7,343 537.7,438 523.7,438 523.7,438 Z M 537.7,390 534.7,390 534.7,422.9 C 527.8,414.2 523.7,402.9 523.7,390.5 523.7,363.9 542.8,342.2 566.7,341.1 L 566.7,355.1 C 550.8,356.3 538.2,371.4 537.7,390 L 537.7,390 Z M 615.2,438 C 588.4,438 566.7,415.8 566.7,388.5 566.7,361.2 588.4,339 615.2,339 642,339 663.7,361.2 663.7,388.5 663.7,415.8 642,438 615.2,438 L 615.2,438 Z M 615.7,352 C 595.8,352 579.7,368.3 579.7,388.5 579.7,408.7 595.8,425 615.7,425 635.6,425 651.7,408.7 651.7,388.5 651.7,368.3 635.6,352 615.7,352 L 615.7,352 Z M 852.7,389 852.7,389 852.7,389 C 852.4,415.4 833.5,436.9 809.7,438 L 809.7,424 C 825.6,422.8 838.2,407.7 838.7,389 L 838.7,389 838.7,389 C 838.9,362.6 857.9,341.2 881.7,340.1 L 881.7,354.1 C 865.8,355.3 853.2,370.4 852.7,389 L 852.7,389 Z"
         id="use65"
         inkscape:connector-curvature="0" />
    </clipPath>
  </defs>
  <metadata
     id="metadata7">
    <rdf:RDF>
      <cc:Work
         rdf:about="">
        <dc:format>image/svg+xml</dc:format>
        <dc:type
           rdf:resource="http://purl.org/dc/dcmitype/StillImage" />
        <dc:title></dc:title>
      </cc:Work>
    </rdf:RDF>
  </metadata>
  <path
     id="path4170"
     d="M 6361.7832,-6.1035164e-5 6361.7832,941.32426 6361.7832,1882.6482 6471.6041,1882.6482 6581.4254,1882.6482 6581.4254,941.32426 6581.4254,-6.1035164e-5 6471.6041,-6.1035164e-5 Z M 6804.2055,-6.1035164e-5 6804.2055,109.82085 6804.2055,219.64214 6914.0264,219.64214 7023.8477,219.64214 7023.8477,109.82085 7023.8477,-6.1035164e-5 6914.0264,-6.1035164e-5 Z M 6139.003,2.3956674 6111.5478,4.4920239 C 5989.1743,13.841842 5850.2816,70.373049 5751.4971,151.03438 5695.1919,197.01 5650.1449,245.74963 5600.5237,314.38751 5583.1778,338.38095 5545.6178,407.80849 5526.1616,451.83537 5506.5462,496.22149 5485.3341,564.19548 5478.1823,605.58525 5477.4367,609.8996 5475.3685,620.48945 5473.5859,629.11814 5462.5091,682.73697 5461.0849,716.18792 5459.9869,949.16855 5459.483,1056.1656 5458.2663,1147.9447 5457.2842,1153.1222 5456.3029,1158.2992 5454.6004,1171.0073 5453.4971,1181.3618 5452.3933,1191.7163 5450.0368,1206.5422 5448.2635,1214.3082 5446.4903,1222.0741 5444.5679,1230.5462 5443.9917,1233.1347 5438.6004,1257.3563 5435.3077,1269.5933 5428.3766,1291.1831 5423.9447,1304.9892 5419.1269,1319.109 5417.6704,1322.5603 5416.2138,1326.0119 5413.6012,1332.3657 5411.8667,1336.6805 5410.1322,1340.9948 5402.6784,1357.1586 5395.3014,1372.5987 5335.2388,1498.3093 5228.9877,1597.3355 5109.8893,1638.6025 5081.1733,1648.5522 5034.8765,1659.0656 5013.342,1660.5301 L 0.012,1661.4372 0.006,1771.9936 0,1882.5443 5018.0427,1880.8463 C 5187.4236,1880.789 5325.8743,1798.957 5447.1971,1677.3036 5509.4292,1614.9017 5553.7317,1552.8492 5592.937,1473.1722 5629.9013,1398.0487 5653.6579,1325.4516 5666.8638,1247.2545 5668.0296,1240.3516 5669.5532,1231.6243 5670.2529,1227.8578 5676.1725,1195.9911 5678.302,1141.9603 5679.5127,993.09677 5681.4509,754.83175 5682.6774,711.73575 5688.3805,681.6999 5697.8655,631.74847 5705.9045,602.78358 5722.6814,558.09583 5730.7241,536.67398 5760.2655,475.89546 5766.7019,467.52434 5768.692,464.93543 5772.2841,459.28766 5774.687,454.97331 5785.8718,434.89431 5826.1703,384.85815 5851.2983,359.84798 5902.2364,309.14907 5961.1746,270.6408 6022.3854,248.07155 6059.5738,234.35994 6105.5988,223.96778 6133.5119,222.9759 6138.6336,222.79402 6139.003,215.36357 6139.003,112.58486 Z M 6804.2055,379.66716 6804.2055,1131.1577 6804.2055,1882.6482 6914.0264,1882.6482 7023.8477,1882.6482 7023.8477,1131.1577 7023.8477,379.66716 6914.0264,379.66716 Z M 7246.6279,379.66716 7246.6279,1131.1577 7246.6279,1882.6482 7358.0729,1882.6482 7469.5244,1882.6482 7469.4385,1370.4112 7469.3587,858.1738 7476.8599,828.29762 C 7503.2231,723.27494 7584.4079,640.67729 7690.0798,611.3701 7751.6901,594.28293 7824.6823,598.65903 7884.6813,623.03882 7918.6259,636.83177 7959.6692,665.35419 7988.2515,695.01084 8013.8913,721.61427 8042.5297,768.78399 8054.0403,803.37331 8069.4762,849.76089 8068.9841,830.7728 8068.7849,1374.811 L 8068.6011,1882.6482 8180.0465,1882.6482 8291.498,1882.6482 8291.7552,1375.1176 C 8291.8971,1095.976 8292.6484,863.35124 8293.4222,858.1738 8296.9593,834.51401 8307.6957,798.6116 8317.7335,776.88623 8357.9243,689.89779 8438.2139,625.543 8529.458,607.18454 8662.6679,580.38228 8792.494,641.00076 8857.2913,760.25396 8871.3908,786.20291 8886.6064,831.29247 8889.4348,855.50808 8890.5833,865.34216 8891.9593,875.61796 8892.4929,878.33641 8893.0269,881.05486 8893.574,1108.1347 8893.7062,1382.9622 L 8893.9453,1882.6482 9003.7666,1882.6482 9113.5875,1882.6482 9113.5081,1382.9622 C 9113.4595,1084.1503 9112.204,870.67738 9110.3822,851.94084 9103.2767,778.84966 9080.8524,707.69894 9045.7646,646.88464 9012.1871,588.68787 8986.5529,557.06704 8934.5707,509.72448 8866.5839,447.80646 8764.483,400.48537 8667.825,386.08953 8627.6595,380.10737 8518.8828,380.97875 8508.1675,387.37062 8507.2152,387.93886 8500.0796,389.25798 8492.3136,390.29994 8464.08,394.08898 8411.952,411.12493 8371.5105,429.77298 8303.8954,460.95134 8248.7315,503.39474 8190.4647,569.07205 L 8179.7155,581.18776 8165.7919,564.44477 C 8151.8073,547.62911 8112.9518,509.34829 8095.3887,495.07748 8057.844,464.57091 7998.1353,431.15913 7947.9388,412.57058 7858.1054,379.30415 7756.4624,372.04654 7660.4306,392.04685 7600.2407,404.58206 7526.3862,435.67456 7483.0067,466.73995 7477.5845,470.62275 7472.305,473.79985 7471.2769,473.79985 7470.2489,473.79985 7469.4076,452.61976 7469.4076,426.73369 L 7469.4076,379.66716 7358.0179,379.66716 Z"
     style="fill:#0882a9;fill-opacity:1"
     inkscape:connector-curvature="0"
     sodipodi:nodetypes="ccccccccccccccccccccsssccsccsscccssccccssscssscccsscsccccccccccccccccccssscscccscsssccscccscsssccscccssscssccc" />
  <path
     id="path4170-1"
     d="M 10784.438,318.55236 C 10704.168,318.44918 10664.409,322.8475 10603.319,338.58015 10436.627,381.50895 10299.52,469.20685 10191.379,602.07111 10120.567,689.07236 10065.692,800.39841 10038.942,911.32305 10022.619,979.00784 10019.655,1005.4215 10019.232,1087.0371 10018.866,1157.7619 10020.432,1192.7598 10025.085,1218.0381 10025.958,1222.784 10027.393,1230.5496 10028.278,1235.2954 10029.162,1240.0413 10030.668,1248.8662 10031.624,1254.9064 10032.579,1260.9465 10034.831,1271.5364 10036.631,1278.4396 10038.43,1285.3425 10040.533,1294.5206 10041.295,1298.835 10042.057,1303.1493 10049.932,1328.5308 10058.797,1355.2408 10085.338,1435.2066 10129.359,1516.4836 10185.606,1589.3522 10216.86,1629.8413 10287.637,1700.0148 10319.714,1722.3204 10323.351,1724.8491 10327.739,1728.0424 10329.465,1729.4173 10347.215,1743.5615 10359.982,1752.5871 10371.824,1759.3544 10379.59,1763.7927 10388.062,1769.132 10390.651,1771.219 10396.098,1775.6113 10436.978,1797.8058 10464.388,1811.2561 10506.748,1832.0423 10566.591,1851.9805 10627.551,1865.6153 10645.956,1869.7319 10693.374,1876.7094 10716.848,1878.7545 10864.923,1891.6561 11000.112,1864.3108 11135.866,1793.9984 11254.889,1732.3519 11369.934,1622.9339 11438.75,1505.9261 11468.74,1454.9361 11510.127,1359.6809 11518.622,1322.0982 11519.369,1318.7946 11522.149,1308.3267 11524.799,1298.835 11531.464,1274.9647 11541.275,1222.9229 11543.73,1198.4271 11544.854,1187.2095 11546.476,1173.7958 11547.334,1168.6184 11551.272,1144.8433 11548.559,1014.9954 11543.761,997.61107 11543.046,995.02254 11541.681,986.09486 11540.727,977.77345 11538.798,960.93105 11527.7,907.08816 11523.151,892.49651 11504.425,832.4346 11499.148,817.2427 11490.45,798.30884 11484.887,786.19915 11479.254,772.87729 11477.929,768.70265 11476.604,764.52763 11471.033,752.55163 11465.55,742.08679 11420.734,656.56245 11385.591,608.50516 11319.577,542.47238 11264.201,487.07954 11230.166,460.12891 11167.648,422.17759 11141.788,406.47958 11080.096,376.18089 11058.427,368.53579 10944.161,328.22038 10891.91,318.69018 10784.438,318.55236 Z M 20000.003,333.68308 14977.253,335.91405 C 14909.813,342.53148 14857.695,353.79389 14808.599,372.36587 14806.011,373.34495 14802.308,374.48595 14800.369,374.90319 14781.176,379.03603 14672.444,436.00443 14654.121,451.52658 14651.933,453.3793 14638.297,463.58468 14623.816,474.20805 14591.616,497.82718 14524.567,563.28607 14496.804,598.21016 14476.314,623.98664 14438.345,678.69639 14438.345,682.44513 14438.345,683.53944 14435.683,688.18479 14432.431,692.76536 14412.74,720.50603 14368.1,823.69369 14354.846,872.10119 14331.606,956.97783 14324.198,1004.349 14320.735,1090.1746 14317.684,1165.7866 14310.559,1214.0837 14292.967,1278.4396 14283.425,1313.3445 14256.265,1375.2087 14234.067,1412.5967 14207.375,1457.554 14183.866,1487.7484 14146.694,1524.8325 14072.779,1598.5733 13991.23,1641.4388 13895.852,1656.6853 13884.449,1658.5079 13871.943,1660.6589 13868.06,1661.4655 L 13861,1662.9364 13861,1772.8861 13861,1882.8422 13874.335,1881.0648 C 13881.67,1880.0887 13896.142,1878.5911 13906.497,1877.737 13916.852,1876.883 13928.853,1875.4558 13933.168,1874.5625 13937.482,1873.6693 13943.836,1872.3777 13947.288,1871.6946 14000.956,1861.0731 14037.615,1850.2984 14078.705,1833.0734 14125.786,1813.337 14154.094,1798.0627 14199.876,1767.689 14263.266,1725.635 14338.652,1653.5944 14378.569,1596.9209 14395.725,1572.5626 14427.636,1523.5947 14432.756,1513.7708 14435.455,1508.5934 14442.066,1496.1324 14447.446,1486.0765 14467.395,1448.7883 14499.783,1368.1115 14505.703,1340.9617 14506.427,1337.6381 14509.816,1325.0351 14513.234,1312.9548 14516.652,1300.8745 14520.378,1284.6677 14521.514,1276.9383 14522.65,1269.2088 14524.055,1262.1177 14524.633,1261.1819 14525.212,1260.2461 14526.534,1253.8079 14527.569,1246.8723 14528.603,1239.9363 14529.977,1231.4955 14530.627,1228.1132 14531.277,1224.7304 14532.714,1212.7823 14533.814,1201.5647 14534.913,1190.3475 14536.438,1176.2273 14537.203,1170.1871 14537.967,1164.147 14539.352,1141.5555 14540.279,1119.9834 14541.881,1082.7107 14544.155,1052.5359 14546.665,1035.2642 14547.292,1030.9498 14548.703,1021.0657 14549.803,1013.3001 14552.056,997.37722 14559.582,963.16447 14563.953,948.97613 14573.9,916.69367 14580.972,896.75663 14587.639,882.21318 14591.815,873.1055 14595.233,864.9686 14595.233,864.13451 14595.233,853.94193 14638.337,780.09723 14663.319,747.49205 14684.563,719.7657 14736.631,665.71193 14753.346,654.02777 14758.283,650.57614 14766.025,644.78339 14770.554,641.15817 14794.954,621.62518 14859.076,588.13319 14898.025,574.57296 14912.413,569.56347 14961.736,559.00336 14981.96,556.60424 L 20000.003,554.4661 20000.003,444.07467 Z M 10014.121,350.52415 9985.0968,352.60168 C 9843.6705,362.70049 9679.5511,440.1994 9576.522,545.54254 9567.958,554.29889 9559.8388,561.46423 9558.4798,561.46423 9557.1204,561.46423 9556.0099,520.51656 9556.0099,470.46948 L 9556.0099,379.47473 9446.189,379.47473 9336.3677,379.47473 9336.3677,1130.9653 9336.3677,1882.4558 9446.189,1882.4558 9556.0099,1882.4558 9556.2735,1494.1599 C 9556.4177,1280.5966 9556.902,1103.0393 9557.352,1099.5881 9557.802,1096.1365 9559.364,1081.3106 9560.8209,1066.6417 9562.2779,1051.9725 9563.6395,1039.2648 9563.8482,1038.4017 9564.0564,1037.539 9565.3206,1030.4791 9566.6611,1022.7131 9573.0221,985.86892 9589.7561,929.90708 9606.0668,890.92773 9615.9201,867.3809 9649.2083,802.88941 9653.035,799.93298 9654.1523,799.07026 9660.1589,790.59822 9666.3829,781.10644 9682.0937,757.14576 9719.386,714.33181 9745.1267,690.70629 9787.659,651.66894 9850.9613,613.74361 9907.4379,593.45448 9935.0117,583.54884 9989.9602,570.87731 10005.351,570.87731 L 10014.121,570.87731 10014.121,460.70092 Z M 11771.26,379.47473 11771.26,1130.9653 11771.26,1882.4558 11882.65,1882.4558 11994.04,1882.4558 11994.04,1376.4943 C 11994.04,947.28308 11994.731,866.96253 11998.593,846.99914 12010.53,785.2935 12038.007,733.22764 12081.541,689.82399 12140.496,631.04542 12207.757,602.68492 12290.036,601.8994 12318.818,601.6245 12342.977,604.07483 12369.001,609.90939 12432.78,624.20882 12507.032,676.37221 12543.452,732.47149 12573.9,779.37121 12591.079,829.24845 12594.796,881.51465 12595.348,889.28024 12595.956,1117.6694 12596.144,1389.0453 L 12596.487,1882.4558 12706.235,1882.4558 12815.989,1882.4558 12816.939,1367.0808 C 12817.982,801.82937 12816.443,848.79574 12835.661,795.22662 12856.401,737.41433 12904.191,679.55723 12959.829,644.90276 12977.686,633.78006 13025.442,613.19231 13040.797,609.99524 13047.525,608.59479 13053.736,607.23349 13054.598,606.97404 13070.917,602.0666 13132.548,599.88325 13158.144,603.30287 13221.762,611.80315 13285.309,644.089 13331.149,691.2026 13368.991,730.09572 13390.063,766.36755 13408.061,823.59503 L 13416.898,851.70586 13417.836,1367.0808 13418.773,1882.4558 13528.515,1882.4558 13638.256,1882.4558 13638.201,1371.0337 13638.146,859.61154 13630.522,814.86806 C 13620.854,758.14179 13607.601,717.44717 13583.064,669.12214 13518.236,541.44322 13410.543,448.36303 13278.604,405.98025 13122.598,355.86577 12962.723,378.63197 12823.637,470.76998 12798.195,487.62443 12778.431,504.52897 12746.315,536.90143 12722.586,560.8203 12703.167,579.30831 12703.164,577.98655 12703.157,574.1222 12646.856,516.72979 12626.296,499.62868 12615.941,491.01619 12601.115,479.88595 12593.35,474.89416 12585.584,469.90312 12578.524,464.98137 12577.661,463.95522 12574.796,460.54728 12530.526,435.60226 12518.699,430.73285 12512.3,428.098 12502.825,424.08679 12497.648,421.81609 12435.648,394.62295 12378.521,382.5946 12304.677,381.19716 12213.144,379.46419 12130.269,398.52345 12056.795,438.19719 12042.126,446.11831 12024.792,455.48997 12018.278,459.0218 12011.763,462.55326 12003.645,468.04137 12000.235,471.21735 11994.082,476.95022 11994.04,476.64295 11994.04,428.23244 L 11994.04,379.47473 11882.65,379.47473 Z M 10788.409,522.47547 C 10814.307,522.46831 10840.189,523.44023 10855.037,525.38634 10941.843,536.76398 10993.315,553.78902 11074.68,598.03844 11085.532,603.94078 11121.847,627.4217 11124.884,630.5009 11125.747,631.37567 11136.337,640.07854 11148.417,649.84221 11257.839,738.27818 11332.83,869.1632 11353.97,1008.5933 11359.432,1044.617 11359.681,1048.0506 11360.105,1094.8814 11360.697,1160.4796 11354.712,1204.5313 11337.05,1264.6753 11306.406,1369.0205 11253.023,1454.0531 11168.99,1532.3703 11149.402,1550.6256 11143.602,1554.9546 11098.213,1585.2217 11067.315,1605.8256 11046.55,1617.1818 11011.925,1632.4166 11000.365,1637.5029 10957.2,1653.1207 10949.17,1655.1226 10903.315,1666.5529 10900.554,1667.0948 10862.882,1671.9326 10791.987,1681.038 10713.778,1675.7502 10640.102,1656.8751 10626.296,1653.338 10612.176,1649.1378 10608.724,1647.5355 10605.273,1645.9332 10589.741,1639.3722 10574.209,1632.9559 10441.264,1578.0337 10337.206,1477.7923 10274.793,1344.5346 10256.945,1306.4258 10239.535,1252.7437 10231.986,1212.5469 10219.467,1145.8796 10219.317,1041.6003 10231.667,988.19799 10232.266,985.60908 10233.798,977.84349 10235.069,970.94024 10236.339,964.03736 10238.535,954.85926 10239.953,950.54491 10241.372,946.23057 10245.027,934.22858 10248.073,923.87408 10264.109,869.36165 10308.821,782.3638 10339.184,746.5913 10369.31,711.1001 10390.244,687.40303 10396.89,681.28078 10401.224,677.28727 10409.712,669.44071 10415.753,663.83926 10421.793,658.23743 10435.207,647.38887 10445.561,639.73624 10455.916,632.08362 10465.094,625.10279 10465.957,624.22539 10474.579,615.45737 10532.66,582.96328 10563.227,569.80485 10574.444,564.97611 10586.446,559.71507 10589.898,558.11805 10610.287,548.68162 10684.32,530.31148 10721.683,525.41684 10736.6,523.46283 10762.512,522.48224 10788.409,522.47547 Z"
     style="fill:#9e9e9e;fill-opacity:1"
     inkscape:connector-curvature="0"
     sodipodi:nodetypes="sssssccccccsscccsssssccccccssscssssccccccsscsssssccccccccsssscsccscccccccccssscccccccccssscccccccscsccsccsssccccccccsssssscscccssscccscccccccccsssscsccsssccssccccsccscsssssccssssscccsssscsscsc" />
  <g
     transform="matrix(4.6408341,0,0,4.6408341,-49617.215,-1445.0511)"
     style="font-style:normal;font-weight:normal;font-size:40px;line-height:125%;font-family:sans-serif;letter-spacing:0px;word-spacing:0px;fill:#9e9e9e;fill-opacity:1;stroke:none;stroke-width:1px;stroke-linecap:butt;stroke-linejoin:miter;stroke-opacity:1"
     id="flowRoot4158">
    <path
       d="M 15011.788,374.7441 15018.292,374.7441 15018.292,433.14743 15043.121,433.14743 15043.121,439.38766 15011.788,439.38766 15011.788,374.7441 Z"
       style="font-style:normal;font-variant:normal;font-weight:normal;font-stretch:normal;font-size:90.00000763px;font-family:'Century Gothic';-inkscape-font-specification:'Century Gothic';fill:#9e9e9e;fill-opacity:1"
       id="path4167"
       inkscape:connector-curvature="0" />
    <path
       d="M 15052.525,374.7441 15058.985,374.7441 15058.985,439.38766 15052.525,439.38766 15052.525,374.7441 Z"
       style="font-style:normal;font-variant:normal;font-weight:normal;font-stretch:normal;font-size:90.00000763px;font-family:'Century Gothic';-inkscape-font-specification:'Century Gothic';fill:#9e9e9e;fill-opacity:1"
       id="path4169"
       inkscape:connector-curvature="0" />
    <path
       d="M 15071.07,439.38766 15080.255,374.7441 15081.31,374.7441 15107.589,427.7861 15133.605,374.7441 15134.659,374.7441 15143.932,439.38766 15137.56,439.38766 15131.231,393.15719 15108.38,439.38766 15106.754,439.38766 15083.595,392.80563 15077.311,439.38766 15071.07,439.38766 Z"
       style="font-style:normal;font-variant:normal;font-weight:normal;font-stretch:normal;font-size:90.00000763px;font-family:'Century Gothic';-inkscape-font-specification:'Century Gothic';fill:#9e9e9e;fill-opacity:1"
       id="path4171"
       inkscape:connector-curvature="0" />
    <path
       d="M 15156.412,374.7441 15162.872,374.7441 15162.872,439.38766 15156.412,439.38766 15156.412,374.7441 Z"
       style="font-style:normal;font-variant:normal;font-weight:normal;font-stretch:normal;font-size:90.00000763px;font-family:'Century Gothic';-inkscape-font-specification:'Century Gothic';fill:#9e9e9e;fill-opacity:1"
       id="path4173"
       inkscape:connector-curvature="0" />
    <path
       d="M 15171.485,381.02828 15171.485,374.7441 15206.949,374.7441 15206.949,381.02828 15192.535,381.02828 15192.535,439.38766 15185.943,439.38766 15185.943,381.02828 15171.485,381.02828 Z"
       style="font-style:normal;font-variant:normal;font-weight:normal;font-stretch:normal;font-size:90.00000763px;font-family:'Century Gothic';-inkscape-font-specification:'Century Gothic';fill:#9e9e9e;fill-opacity:1"
       id="path4175"
       inkscape:connector-curvature="0" />
    <path
       d="M 15216.09,374.7441 15253.136,374.7441 15253.136,381.11618 15222.55,381.11618 15222.55,401.33102 15252.872,401.33102 15252.872,407.65915 15222.55,407.65915 15222.55,433.01559 15252.872,433.01559 15252.872,439.38766 15216.09,439.38766 15216.09,374.7441 Z"
       style="font-style:normal;font-variant:normal;font-weight:normal;font-stretch:normal;font-size:90.00000763px;font-family:'Century Gothic';-inkscape-font-specification:'Century Gothic';fill:#9e9e9e;fill-opacity:1"
       id="path4177"
       inkscape:connector-curvature="0" />
    <path
       d="M 15264.386,439.38766 15264.386,374.7441 15277.789,374.7441 Q 15292.291,374.7441 15298.839,377.07321 15308.243,380.3691 15313.517,388.49899 15318.834,396.62887 15318.834,407.87887 15318.834,417.59079 15314.615,424.9736 15310.44,432.35641 15303.717,435.87204 15297.037,439.38766 15284.952,439.38766 L 15264.386,439.38766 Z M 15270.582,433.27927 15278.053,433.27927 Q 15291.456,433.27927 15296.642,431.60934 15303.937,429.2363 15308.111,423.08395 15312.286,416.88766 15312.286,407.96676 15312.286,398.60641 15307.76,391.97067 15303.233,385.33493 15295.147,382.87399 15289.083,381.02828 15275.152,381.02828 L 15270.582,381.02828 15270.582,433.27927 Z"
       style="font-style:normal;font-variant:normal;font-weight:normal;font-stretch:normal;font-size:90.00000763px;font-family:'Century Gothic';-inkscape-font-specification:'Century Gothic';fill:#9e9e9e;fill-opacity:1"
       id="path4179"
       inkscape:connector-curvature="0" />
  </g>
  <rect
     style="opacity:0.98999999;fill:#9e9e9e;fill-opacity:1;fill-rule:evenodd;stroke:none;stroke-width:6.38500023;stroke-miterlimit:4;stroke-dasharray:none;stroke-opacity:1"
     id="rect4181"
     width="846.31842"
     height="220.78302"
     x="21524.951"
     y="333.68307" />
</svg>
